<svg width="320" height="37" viewBox="0 0 320 37" fill="none" xmlns="http://www.w3.org/2000/svg">
<g clip-path="url(#clip0_295_28)">
<path d="M0 35.7V0.45H22.8V4.65H5V15.7H21.75V19.9H5V31.5H22.8V35.7H0ZM29.45 35.7V0.45H34.65V31.25H52.1V35.7H29.45ZM57.05 35.7V0.45H62.25V35.7H57.05ZM83.55 35.7V0.45H98.25C101.917 0.45 104.76 1.25667 106.78 2.87C108.793 4.49 109.8 6.75 109.8 9.65C109.8 11.7833 109.167 13.5833 107.9 15.05C106.633 16.5167 104.917 17.5 102.75 18V17.25C104.383 17.4833 105.793 17.9733 106.98 18.72C108.16 19.4733 109.067 20.4567 109.7 21.67C110.333 22.89 110.65 24.3167 110.65 25.95C110.65 28.0167 110.183 29.7833 109.25 31.25C108.317 32.7167 106.967 33.8233 105.2 34.57C103.433 35.3233 101.317 35.7 98.85 35.7H83.55ZM88.55 31.7H98.25C99.25 31.7 100.143 31.6233 100.93 31.47C101.71 31.3233 102.393 31.0933 102.98 30.78C103.56 30.46 104.05 30.0567 104.45 29.57C104.85 29.09 105.143 28.5333 105.33 27.9C105.51 27.2667 105.6 26.55 105.6 25.75C105.6 24.95 105.51 24.2333 105.33 23.6C105.143 22.9667 104.85 22.4167 104.45 21.95C104.05 21.4833 103.56 21.0933 102.98 20.78C102.393 20.46 101.71 20.2233 100.93 20.07C100.143 19.9233 99.25 19.85 98.25 19.85H88.55V31.7ZM88.55 15.85H97.45C99.85 15.85 101.667 15.3667 102.9 14.4C104.133 13.4333 104.75 12.0167 104.75 10.15C104.75 8.28333 104.133 6.86667 102.9 5.9C101.667 4.93333 99.85 4.45 97.45 4.45H88.55V15.85ZM132.95 36.15C130.45 36.15 128.183 35.7333 126.15 34.9C124.117 34.0667 122.377 32.85 120.93 31.25C119.477 29.65 118.367 27.7433 117.6 25.53C116.833 23.31 116.45 20.8167 116.45 18.05C116.45 15.2833 116.833 12.79 117.6 10.57C118.367 8.35667 119.467 6.45667 120.9 4.87C122.333 3.29 124.067 2.08333 126.1 1.25C128.133 0.416667 130.417 0 132.95 0C135.45 0 137.717 0.416667 139.75 1.25C141.783 2.08333 143.527 3.28333 144.98 4.85C146.427 6.41667 147.533 8.30667 148.3 10.52C149.067 12.74 149.45 15.2333 149.45 18C149.45 20.7667 149.067 23.2667 148.3 25.5C147.533 27.7333 146.427 29.65 144.98 31.25C143.527 32.85 141.783 34.0667 139.75 34.9C137.717 35.7333 135.45 36.15 132.95 36.15ZM132.95 31.65C135.283 31.65 137.277 31.1167 138.93 30.05C140.577 28.9833 141.843 27.4333 142.73 25.4C143.61 23.3667 144.05 20.9167 144.05 18.05C144.05 15.1833 143.617 12.7333 142.75 10.7C141.883 8.66667 140.627 7.12333 138.98 6.07C137.327 5.02333 135.317 4.5 132.95 4.5C130.617 4.5 128.627 5.02333 126.98 6.07C125.327 7.12333 124.06 8.66667 123.18 10.7C122.293 12.7333 121.85 15.1833 121.85 18.05C121.85 20.8833 122.293 23.3233 123.18 25.37C124.06 27.4233 125.327 28.9833 126.98 30.05C128.627 31.1167 130.617 31.65 132.95 31.65ZM165.15 35.7L152.8 0.45H158.1L168.45 30.9H166.6L177.25 0.45H181.2L191.65 30.9H190L200.45 0.45H205.5L193.05 35.7H188.7L178.6 6.75H179.7L169.5 35.7H165.15ZM211 35.7V0.45H215.35L229.2 26.25H227.65L241.4 0.45H245.65V35.7H241V7.8H242.1L229.95 30.3H226.8L214.5 7.75H215.7V35.7H211ZM250.4 35.7L266.1 0.45H270.4L286.15 35.7H280.85L276.55 25.7L278.9 27.1H257.6L259.9 25.7L255.65 35.7H250.4ZM268.2 6.2L260.65 24.1L259.4 22.9H277.05L275.9 24.1L268.3 6.2H268.2ZM290.75 35.7V0.45H294.7L316.15 28.75H314.9V0.45H319.7V35.7H315.85L294.4 7.4H295.55V35.7H290.75Z" fill="black"/>
</g>
<defs>
<clipPath id="clip0_295_28">
<rect width="319.7" height="36.15" fill="white"/>
</clipPath>
</defs>
</svg>
